<svg id="Layer_1" data-name="Layer 1" xmlns="http://www.w3.org/2000/svg" xmlns:xlink="http://www.w3.org/1999/xlink" viewBox="0 0 459.06 433.07"><defs><style>.cls-1,.cls-5{fill:#580088;}.cls-1,.cls-2,.cls-4{clip-rule:evenodd;}.cls-2,.cls-9{fill:#480760;}.cls-3{fill:#a901f7;}.cls-13,.cls-4{fill:#7201a7;}.cls-12,.cls-13,.cls-15,.cls-16,.cls-17,.cls-19,.cls-5,.cls-7,.cls-8,.cls-9{fill-rule:evenodd;}.cls-6{clip-path:url(#clip-path);}.cls-7{fill:#3e0a60;}.cls-8{fill:#53087f;}.cls-10{clip-path:url(#clip-path-2);}.cls-11{fill:#3a034c;}.cls-12{fill:#fe74e4;}.cls-14{clip-path:url(#clip-path-3);}.cls-15{fill:#0e0033;}.cls-16{fill:#e9e9e9;opacity:0.52;}.cls-17{fill:#dadada;}.cls-18,.cls-19,.cls-32,.cls-33{fill:#fff;}.cls-20{fill:url(#linear-gradient);}.cls-21,.cls-23,.cls-25,.cls-27,.cls-29{opacity:0.36;}.cls-21{fill:url(#linear-gradient-2);}.cls-22{fill:url(#linear-gradient-3);}.cls-23{fill:url(#linear-gradient-4);}.cls-24{fill:url(#linear-gradient-5);}.cls-25{fill:url(#linear-gradient-6);}.cls-26{fill:url(#linear-gradient-7);}.cls-27{fill:url(#linear-gradient-8);}.cls-28{fill:url(#linear-gradient-9);}.cls-29{fill:url(#linear-gradient-10);}.cls-30{clip-path:url(#clip-path-4);}.cls-31{fill:#9101d5;}.cls-32{opacity:0.23;}.cls-33{opacity:0.22;}.cls-34{clip-path:url(#clip-path-5);}.cls-35{clip-path:url(#clip-path-6);}.cls-36{clip-path:url(#clip-path-7);}.cls-37{clip-path:url(#clip-path-8);}.cls-38{fill:#f9f9f9;}.cls-39{clip-path:url(#clip-path-9);}.cls-40{clip-path:url(#clip-path-10);}.cls-41{clip-path:url(#clip-path-11);}.cls-42{clip-path:url(#clip-path-12);}.cls-43{clip-path:url(#clip-path-13);}.cls-44{clip-path:url(#clip-path-14);}.cls-45{clip-path:url(#clip-path-15);}.cls-46{clip-path:url(#clip-path-16);}.cls-47{clip-path:url(#clip-path-17);}.cls-48{clip-path:url(#clip-path-18);}</style><clipPath id="clip-path" transform="translate(-23.78 -37.21)"><path class="cls-1" d="M278.6,294.88S267.09,320.5,252.44,324c4.86-1.16-16.11,5.47-37.37,4.47-23.17-1.09-47-9.76-47-9.76a114.93,114.93,0,0,1,5.83,23.77c2.12,18.27,1.53,39.5,1.53,39.5l-9.37.63s-2.86-9.82-6.27-22.43c-2.49-9.23-5.28-19.95-7.46-29.41-2.09-9.08-7.5-20.63-2.18-27.18,4.77-5.87,19.63-8.21,43.21-8.57,13.24-.2,33-3.17,33-3.17l19.63-6s13.87-3,18-.27,14.64,9.38,14.64,9.38h0Z"/></clipPath><clipPath id="clip-path-2" transform="translate(-23.78 -37.21)"><path class="cls-2" d="M297.35,117.6c44.17,52.31,37.55,134.28-14.93,180s-130.83,40.37-175-11.94c-4.95-5.86-9.17-12.92-12.84-19.38,2.89,37.68,16.51,71.48,44,104.08C195.29,437.47,289.45,430.73,353,368c64.32-63.49,64.8-130,13.4-197-20.51-26.75-39.53-45.41-69.05-53.36h0Z"/></clipPath><clipPath id="clip-path-3" transform="translate(-23.78 -37.21)"><path class="cls-4" d="M280,234.52c0,0.83-.21,1.66-0.24,2.48a12.58,12.58,0,0,0,.22,2.44c4,21.09,3.76,43-.68,54.86-5.28,14.12-15.37,16.16-15.37,16.16a125.42,125.42,0,0,1-16.09-12.64c-8.66-8.22-16.76-19.22-12.47-29.2,5.48-12.76,17.51-24.38,10.51-37.24-0.89-1.63-6.58-10.28-6-15.78s11-14.63,16.19-20.61c7.61-8.74,15.76-17.34,15.76-17.34s14.87,4,13,39.8c-0.24,4.59-2.38,9-3.79,13.24a13.08,13.08,0,0,0-1,3.81v0Z"/></clipPath><linearGradient id="linear-gradient" x1="265.02" y1="156.74" x2="395.24" y2="156.74" gradientTransform="translate(-30.52 102.59) rotate(-30.66)" gradientUnits="userSpaceOnUse"><stop offset="0.13" stop-color="#37106b"/><stop offset="0.27" stop-color="#3d0f73" stop-opacity="0.93"/><stop offset="0.47" stop-color="#4e0d87" stop-opacity="0.74"/><stop offset="0.72" stop-color="#6909a9" stop-opacity="0.43"/><stop offset="1" stop-color="#8f03d8" stop-opacity="0"/></linearGradient><linearGradient id="linear-gradient-2" x1="268.33" y1="156.74" x2="286.61" y2="156.74" gradientTransform="translate(10.62 -60.83)" gradientUnits="userSpaceOnUse"><stop offset="0" stop-color="#ff94e7"/><stop offset="0.09" stop-color="#fa8ee6" stop-opacity="0.96"/><stop offset="0.23" stop-color="#ee7ee5" stop-opacity="0.85"/><stop offset="0.43" stop-color="#da64e2" stop-opacity="0.67"/><stop offset="0.66" stop-color="#be40de" stop-opacity="0.42"/><stop offset="0.92" stop-color="#9b12da" stop-opacity="0.1"/><stop offset="1" stop-color="#8f03d8" stop-opacity="0"/></linearGradient><linearGradient id="linear-gradient-3" x1="83.19" y1="93.66" x2="155.95" y2="93.66" xlink:href="#linear-gradient"/><linearGradient id="linear-gradient-4" x1="85.04" y1="93.66" x2="95.26" y2="93.66" gradientTransform="translate(4.64 43.52)" xlink:href="#linear-gradient-2"/><linearGradient id="linear-gradient-5" x1="-46.32" y1="186.61" x2="26.44" y2="186.61" xlink:href="#linear-gradient"/><linearGradient id="linear-gradient-6" x1="-44.47" y1="186.61" x2="-34.25" y2="186.61" gradientTransform="translate(70.15 96.57)" xlink:href="#linear-gradient-2"/><linearGradient id="linear-gradient-7" x1="293.45" y1="388.05" x2="366.22" y2="388.05" xlink:href="#linear-gradient"/><linearGradient id="linear-gradient-8" x1="295.31" y1="388.05" x2="305.52" y2="388.05" gradientTransform="translate(125.38 -104.88)" xlink:href="#linear-gradient-2"/><linearGradient id="linear-gradient-9" x1="-12.88" y1="417.17" x2="35.87" y2="417.17" xlink:href="#linear-gradient"/><linearGradient id="linear-gradient-10" x1="-11.64" y1="417.17" x2="-4.8" y2="417.17" gradientTransform="translate(183.38 48.45)" xlink:href="#linear-gradient-2"/><clipPath id="clip-path-4" transform="translate(-23.78 -37.21)"><circle class="cls-3" cx="177.17" cy="172.75" r="25.23"/></clipPath><clipPath id="clip-path-5" transform="translate(-23.78 -37.21)"><circle class="cls-3" cx="157.36" cy="146.02" r="6.5"/></clipPath><clipPath id="clip-path-6" transform="translate(-23.78 -37.21)"><circle class="cls-3" cx="207.74" cy="159.61" r="3.93"/></clipPath><clipPath id="clip-path-7" transform="translate(-23.78 -37.21)"><circle class="cls-3" cx="147.87" cy="167.28" r="2.89"/></clipPath><clipPath id="clip-path-8" transform="translate(-23.78 -37.21)"><circle class="cls-3" cx="166.05" cy="201.51" r="2.89"/></clipPath><clipPath id="clip-path-9" transform="translate(-23.78 -37.21)"><circle class="cls-3" cx="90.51" cy="390.1" r="25.23" transform="translate(-128.36 54.74) rotate(-20.07)"/></clipPath><clipPath id="clip-path-10" transform="translate(-23.78 -37.21)"><circle class="cls-3" cx="62.74" cy="371.79" r="6.5" transform="translate(-123.76 44.1) rotate(-20.07)"/></clipPath><clipPath id="clip-path-11" transform="translate(-23.78 -37.21)"><circle class="cls-3" cx="114.72" cy="367.27" r="3.93" transform="translate(-119.05 61.66) rotate(-20.07)"/></clipPath><clipPath id="clip-path-12" transform="translate(-23.78 -37.21)"><circle class="cls-3" cx="61.11" cy="395.02" r="2.89" transform="translate(-131.83 44.95) rotate(-20.07)"/></clipPath><clipPath id="clip-path-13" transform="translate(-23.78 -37.21)"><circle class="cls-3" cx="89.94" cy="420.93" r="2.89" transform="translate(-138.97 56.41) rotate(-20.07)"/></clipPath><clipPath id="clip-path-14" transform="translate(-23.78 -37.21)"><circle class="cls-3" cx="396.78" cy="393.22" r="25.23" transform="translate(-160.45 353.85) rotate(-40.7)"/></clipPath><clipPath id="clip-path-15" transform="translate(-23.78 -37.21)"><circle class="cls-3" cx="404.12" cy="360.78" r="6.5" transform="translate(-137.52 350.79) rotate(-40.7)"/></clipPath><clipPath id="clip-path-16" transform="translate(-23.78 -37.21)"><circle class="cls-3" cx="426.67" cy="407.83" r="3.93" transform="translate(-162.75 376.88) rotate(-40.7)"/></clipPath><clipPath id="clip-path-17" transform="translate(-23.78 -37.21)"><circle class="cls-3" cx="381.82" cy="367.45" r="2.89" transform="translate(-147.26 337.86) rotate(-40.7)"/></clipPath><clipPath id="clip-path-18" transform="translate(-23.78 -37.21)"><circle class="cls-3" cx="367.73" cy="403.55" r="2.89" transform="translate(-174.22 337.4) rotate(-40.7)"/></clipPath></defs><title>Hero 1</title><path class="cls-5" d="M278.6,294.88S267.09,320.5,252.44,324c4.86-1.16-16.11,5.47-37.37,4.47-23.17-1.09-47-9.76-47-9.76a114.93,114.93,0,0,1,5.83,23.77c2.12,18.27,1.53,39.5,1.53,39.5l-9.37.63s-2.86-9.82-6.27-22.43c-2.49-9.23-5.28-19.95-7.46-29.41-2.09-9.08-7.5-20.63-2.18-27.18,4.77-5.87,19.63-8.21,43.21-8.57,13.24-.2,33-3.17,33-3.17l19.63-6s13.87-3,18-.27,14.64,9.38,14.64,9.38h0Z" transform="translate(-23.78 -37.21)"/><g class="cls-6"><path class="cls-7" d="M252,297.5s-24.89,18-34.38,22.13c-7.41,3.2-31,7-31,7s47,3.07,59.33,4.74,38.91-28.26,37.67-31S252,297.5,252,297.5Z" transform="translate(-23.78 -37.21)"/></g><path class="cls-8" d="M258.83,188.93c-0.45-.78,18.79,10.07,23.22,23,4.38,12.8,16.09,26.24,23.9,20.79,8.55-6,30.91-40.27,30.91-40.27l-4.8-4.77s-4.65,6-10.09,12.61c-4.5,5.45-9.08,11.37-16.12,13.81-8.84,3.06-17.67-39.11-33.26-36.36-3.32.59-13.76,11.16-13.76,11.16h0Z" transform="translate(-23.78 -37.21)"/><path class="cls-9" d="M297.35,117.6c44.17,52.31,37.55,134.28-14.93,180s-130.83,40.37-175-11.94c-4.95-5.86-9.17-12.92-12.84-19.38,2.89,37.68,16.51,71.48,44,104.08C195.29,437.47,289.45,430.73,353,368c64.32-63.49,64.8-130,13.4-197-20.51-26.75-39.53-45.41-69.05-53.36h0Z" transform="translate(-23.78 -37.21)"/><g class="cls-10"><circle class="cls-11" cx="70.8" cy="254.23" r="11.08"/><circle class="cls-11" cx="102.47" cy="287.78" r="11.08"/><circle class="cls-11" cx="102.8" cy="325.78" r="11.08"/><circle class="cls-11" cx="160.15" cy="300.48" r="17.68"/><circle class="cls-11" cx="165.9" cy="369.48" r="17.68"/><circle class="cls-11" cx="142.71" cy="334.35" r="6.31"/><circle class="cls-11" cx="276.68" cy="233.62" r="13.54"/><circle class="cls-11" cx="268.47" cy="352.62" r="13.54"/><circle class="cls-11" cx="210.42" cy="336.19" r="13.54"/><circle class="cls-11" cx="286.75" cy="76.52" r="13.54"/><circle class="cls-11" cx="296.42" cy="136.01" r="13.54"/><circle class="cls-11" cx="309.39" cy="95.79" r="8.17"/><circle class="cls-11" cx="336.39" cy="124" r="8.17"/><circle class="cls-11" cx="337.47" cy="191.69" r="16.75"/><circle class="cls-11" cx="376.02" cy="243.32" r="14.3"/><circle class="cls-11" cx="313.07" cy="281.8" r="14.3"/><circle class="cls-11" cx="239.44" cy="270.05" r="14.3"/><circle class="cls-11" cx="236.54" cy="311.54" r="8.35"/><circle class="cls-11" cx="299.71" cy="326.8" r="10.85"/></g><path class="cls-12" d="M157.83,326.6s-1.32,4.1.05,12.79c2.26,14.29-12.63,8.05-12.63,8.05l4-20.69,8.54-.15h0Z" transform="translate(-23.78 -37.21)"/><path class="cls-5" d="M278.71,274.55s-17.34,22.19-32.44,21.8c5,0.13-17,1.18-37.49-5.34-22.32-7.1-43.51-21.84-43.51-21.84a118.59,118.59,0,0,1,0,24.89c-2.29,18.52-7.94,39.25-7.94,39.25l-9.29-1.82s-0.44-10.4-.75-23.69c-0.23-9.72-.39-21-0.25-30.86,0.13-9.47-2.39-22.24,4.36-27.3,6.05-4.53,21.09-3,44.15,2.82,13,3.25,40.06,5.48,40.06,5.48l13.45-.83s14.23,0.68,17.6,4.41,12,13,12,13h0Z" transform="translate(-23.78 -37.21)"/><path class="cls-12" d="M255.93,136.76s-12.17,3.11-12.09,20c0,7.34-.15,15.22,0,20.49,0.23,8,16.31-2.85,20.83-5.51s11.79-22.44,8.33-29.17-17.08-5.82-17.08-5.82h0Z" transform="translate(-23.78 -37.21)"/><path class="cls-13" d="M280,234.52c0,0.83-.21,1.66-0.24,2.48a12.58,12.58,0,0,0,.22,2.44c4,21.09,3.76,43-.68,54.86-5.28,14.12-15.37,16.16-15.37,16.16a125.42,125.42,0,0,1-16.09-12.64c-8.66-8.22-16.76-19.22-12.47-29.2,5.48-12.76,17.51-24.38,10.51-37.24-0.89-1.63-6.58-10.28-6-15.78s11-14.63,16.19-20.61c7.61-8.74,15.76-17.34,15.76-17.34s14.87,4,13,39.8c-0.24,4.59-2.38,9-3.79,13.24a13.08,13.08,0,0,0-1,3.81v0Z" transform="translate(-23.78 -37.21)"/><g class="cls-14"><path class="cls-8" d="M281.5,234s-2.42,1.95-2.75,10.06-0.42,8.11-10.58,28.78-28.83,36.33-28.83,36.33l26.83,10.33L293,290.16l-3.83-53.33Z" transform="translate(-23.78 -37.21)"/></g><path class="cls-15" d="M263.15,134.3c8.6,0,19.05,7.16,21.28,16.95,3.14,13.77,3,34.16-.79,47.29-3.48,12-10.55,17.74-11,10.25-0.3-4.64-.56-9-5.91-7.88-8,1.68-17-49.92-20.1-53.2-3.74-4,8-13.4,16.55-13.4h0Z" transform="translate(-23.78 -37.21)"/><path class="cls-15" d="M245.82,154c0.44,0,.79.71,0.79,1.58s-0.35,1.58-.79,1.58-0.79-.71-0.79-1.58,0.35-1.58.79-1.58h0Z" transform="translate(-23.78 -37.21)"/><path class="cls-16" d="M261.47,123.93a34.29,34.29,0,1,1-34.29,34.29,34.28,34.28,0,0,1,34.29-34.29h0Z" transform="translate(-23.78 -37.21)"/><path class="cls-17" d="M257.84,192.86L286.64,180c3.1-1.39,6.28-1.47,7.09-.18s-1,3.46-4.15,4.85l-28.8,12.88c-3.1,1.39-6.28,1.47-7.09.18s1-3.46,4.15-4.85h0Z" transform="translate(-23.78 -37.21)"/><path class="cls-13" d="M157.33,336.07s3.43,7.13,2.76,11.82c-0.43,3-3.71,3.67-6.7,5.12-7.71,3.76-20,7.64-22.46,6.7s-0.28-6.23,2.76-7.09c2.14-.61,8.56-3.64,14-6.59s9.67-10,9.67-10h0Z" transform="translate(-23.78 -37.21)"/><path class="cls-18" d="M249.69,129.48a1.2,1.2,0,0,1,1.25,2.06S235.4,141,236,154.4a1.2,1.2,0,1,1-2.41.1c-0.62-14.66,15.45-24.6,16.13-25h0" transform="translate(-23.78 -37.21)"/><path class="cls-19" d="M286,150.06c1.52,0,2.76,4.32,2.76,9.65s-1.24,9.65-2.76,9.65-2.76-4.32-2.76-9.65,1.24-9.65,2.76-9.65h0Z" transform="translate(-23.78 -37.21)"/><path class="cls-19" d="M251.53,181.2c0.54,0,1,1.41,1,3.15s-0.44,3.15-1,3.15-1-1.41-1-3.15,0.44-3.15,1-3.15h0Z" transform="translate(-23.78 -37.21)"/><path class="cls-20" d="M390.2,37.21s-69.93,52.05-94,68.34c-0.24.18-.93,0.53-1.18,0.67a6.15,6.15,0,0,1-.6.39,12.45,12.45,0,0,1-17.06-4.36,12.15,12.15,0,0,1,4.06-16.88,3.55,3.55,0,0,1,1-.47l0-.07,1.84-1Z" transform="translate(-23.78 -37.21)"/><circle class="cls-21" cx="288.09" cy="95.9" r="9.14" transform="translate(-32.41 123.12) rotate(-30.66)"/><path class="cls-22" d="M151.84,104.38s-39.07,29.08-52.51,38.19c-0.13.1-.52,0.3-0.66,0.37a3.43,3.43,0,0,1-.34.22,7,7,0,0,1-9.53-2.44,6.79,6.79,0,0,1,2.27-9.43A2,2,0,0,1,91.6,131l0,0,1-.58Z" transform="translate(-23.78 -37.21)"/><circle class="cls-23" cx="94.79" cy="137.18" r="5.11" transform="translate(-80.48 30.31) rotate(-30.66)"/><path class="cls-24" d="M87.84,250.38s-39.07,29.08-52.51,38.19c-0.13.1-.52,0.3-0.66,0.37a3.43,3.43,0,0,1-.34.22,7,7,0,0,1-9.53-2.44,6.79,6.79,0,0,1,2.27-9.43A2,2,0,0,1,27.6,277l0,0,1-.58Z" transform="translate(-23.78 -37.21)"/><circle class="cls-25" cx="30.79" cy="283.18" r="5.11" transform="translate(-163.89 18.08) rotate(-30.66)"/><path class="cls-26" d="M482.84,250.38s-39.07,29.08-52.51,38.19c-0.13.1-.52,0.3-0.66,0.37a3.43,3.43,0,0,1-.34.22,7,7,0,0,1-9.53-2.44,6.79,6.79,0,0,1,2.27-9.43,2,2,0,0,1,.53-0.26l0,0,1-.58Z" transform="translate(-23.78 -37.21)"/><circle class="cls-27" cx="425.79" cy="283.18" r="5.11" transform="translate(-108.66 219.53) rotate(-30.66)"/><path class="cls-28" d="M213.39,443.64s-26.18,19.49-35.18,25.59c-0.09.07-.35,0.2-0.44,0.25l-0.23.15a4.66,4.66,0,0,1-6.39-1.63,4.55,4.55,0,0,1,1.52-6.32,1.33,1.33,0,0,1,.36-0.17l0,0,0.69-.39Z" transform="translate(-23.78 -37.21)"/><circle class="cls-29" cx="175.16" cy="465.62" r="3.42" transform="translate(-236.75 117.22) rotate(-30.66)"/><circle class="cls-3" cx="153.39" cy="135.54" r="25.23"/><g class="cls-30"><path class="cls-31" d="M202.26,172.88A25.23,25.23,0,0,1,177,198.11c-0.45,0-.89,0-1.34,0,13.31-.7,18.77-11.71,18.77-25.2s-5.46-24.51-18.77-25.2c0.44,0,.89,0,1.34,0A25.23,25.23,0,0,1,202.26,172.88Z" transform="translate(-23.78 -37.21)"/><path class="cls-32" d="M191.38,191.16a7.84,7.84,0,0,1-7.64,1.68c-1.14-.59,3.86-1.16,6.27-3.62s1.32-5.88,2.46-5.29S193.79,188.7,191.38,191.16Z" transform="translate(-23.78 -37.21)"/><path class="cls-33" d="M161.91,160.64a5.91,5.91,0,0,1-2.71,4.85c-1.46.76-2.62-.12-2.62-2a6,6,0,0,1,2.62-4.8C160.68,157.89,161.91,158.74,161.91,160.64Z" transform="translate(-23.78 -37.21)"/><path class="cls-33" d="M156.57,167.48a3,3,0,0,1-1.35,2.42c-0.73.38-1.31-.06-1.31-1a3,3,0,0,1,1.31-2.4C156,166.11,156.57,166.53,156.57,167.48Z" transform="translate(-23.78 -37.21)"/></g><circle class="cls-3" cx="133.59" cy="108.81" r="6.5"/><g class="cls-34"><path class="cls-31" d="M163.82,146.06a6.5,6.5,0,0,1-6.5,6.5H157c3.43-.18,4.83-3,4.83-6.49s-1.4-6.31-4.83-6.49h0.34A6.5,6.5,0,0,1,163.82,146.06Z" transform="translate(-23.78 -37.21)"/><path class="cls-32" d="M161,150.76a2,2,0,0,1-2,.43c-0.29-.15,1-0.3,1.61-0.93s0.34-1.51.63-1.36A1.51,1.51,0,0,1,161,150.76Z" transform="translate(-23.78 -37.21)"/><path class="cls-33" d="M153.43,142.91a1.52,1.52,0,0,1-.7,1.25c-0.38.2-.67,0-0.67-0.5a1.54,1.54,0,0,1,.67-1.24C153.12,142.2,153.43,142.42,153.43,142.91Z" transform="translate(-23.78 -37.21)"/><path class="cls-33" d="M152.06,144.67a0.76,0.76,0,0,1-.35.62c-0.19.1-.34,0-0.34-0.25a0.77,0.77,0,0,1,.34-0.62C151.9,144.31,152.06,144.42,152.06,144.67Z" transform="translate(-23.78 -37.21)"/></g><circle class="cls-3" cx="183.96" cy="122.4" r="3.93"/><g class="cls-35"><path class="cls-31" d="M211.65,159.63a3.93,3.93,0,0,1-3.93,3.93h-0.21c2.07-.11,2.92-1.82,2.92-3.92s-0.85-3.81-2.92-3.92h0.21A3.93,3.93,0,0,1,211.65,159.63Z" transform="translate(-23.78 -37.21)"/><path class="cls-32" d="M210,162.48a1.22,1.22,0,0,1-1.19.26c-0.18-.09.6-0.18,1-0.56s0.2-.91.38-0.82A0.91,0.91,0,0,1,210,162.48Z" transform="translate(-23.78 -37.21)"/><path class="cls-33" d="M205.37,157.73a0.92,0.92,0,0,1-.42.75c-0.23.12-.41,0-0.41-0.3a0.93,0.93,0,0,1,.41-0.75C205.18,157.3,205.37,157.43,205.37,157.73Z" transform="translate(-23.78 -37.21)"/><path class="cls-33" d="M204.54,158.79a0.46,0.46,0,0,1-.21.38c-0.11.06-.2,0-0.2-0.15a0.46,0.46,0,0,1,.2-0.37C204.44,158.58,204.54,158.64,204.54,158.79Z" transform="translate(-23.78 -37.21)"/></g><circle class="cls-3" cx="124.09" cy="130.07" r="2.89"/><g class="cls-36"><path class="cls-31" d="M150.74,167.3a2.89,2.89,0,0,1-2.89,2.89H147.7c1.52-.08,2.15-1.34,2.15-2.88s-0.62-2.8-2.15-2.88h0.15A2.89,2.89,0,0,1,150.74,167.3Z" transform="translate(-23.78 -37.21)"/><path class="cls-32" d="M149.5,169.39a0.9,0.9,0,0,1-.87.19c-0.13-.07.44-0.13,0.72-0.41s0.15-.67.28-0.61A0.67,0.67,0,0,1,149.5,169.39Z" transform="translate(-23.78 -37.21)"/><path class="cls-33" d="M146.12,165.9a0.68,0.68,0,0,1-.31.55c-0.17.09-.3,0-0.3-0.22a0.68,0.68,0,0,1,.3-0.55C146,165.58,146.12,165.68,146.12,165.9Z" transform="translate(-23.78 -37.21)"/><path class="cls-33" d="M145.51,166.68a0.34,0.34,0,0,1-.15.28c-0.08,0-.15,0-0.15-0.11a0.34,0.34,0,0,1,.15-0.27C145.44,166.52,145.51,166.57,145.51,166.68Z" transform="translate(-23.78 -37.21)"/></g><circle class="cls-3" cx="142.28" cy="164.3" r="2.89"/><g class="cls-37"><path class="cls-31" d="M168.93,201.53a2.89,2.89,0,0,1-2.89,2.89h-0.15c1.52-.08,2.15-1.34,2.15-2.88s-0.62-2.8-2.15-2.88H166A2.89,2.89,0,0,1,168.93,201.53Z" transform="translate(-23.78 -37.21)"/><path class="cls-32" d="M167.68,203.62a0.9,0.9,0,0,1-.87.19c-0.13-.07.44-0.13,0.72-0.41s0.15-.67.28-0.61A0.67,0.67,0,0,1,167.68,203.62Z" transform="translate(-23.78 -37.21)"/><path class="cls-33" d="M164.31,200.13a0.68,0.68,0,0,1-.31.55c-0.17.09-.3,0-0.3-0.22a0.68,0.68,0,0,1,.3-0.55C164.17,199.81,164.31,199.91,164.31,200.13Z" transform="translate(-23.78 -37.21)"/><path class="cls-33" d="M163.7,200.91a0.34,0.34,0,0,1-.15.28c-0.08,0-.15,0-0.15-0.11a0.34,0.34,0,0,1,.15-0.27C163.63,200.75,163.7,200.8,163.7,200.91Z" transform="translate(-23.78 -37.21)"/></g><path class="cls-38" d="M170.05,169.7l-1.89,6.88h0v0h0v0.05h0v0l0,0v0h0l0,0h0v0h0v0a0.73,0.73,0,0,1-.64.22h-0.25l0,0,0,0,0,0,0,0,0,0,0,0,0,0,0,0,0,0,0,0,0,0,0,0,0,0v0h0L164.54,172l-1.67,5.08h0l0,0h0l0,0.07h0l0,0h0l0,0h0l0,0h0l0,0h0l0,0h0l-0.07,0h0l0,0h-0.07l-0.1,0H161.9l-0.09,0h0l0,0h0l0,0h0l0,0,0,0,0,0h0l0,0,0,0,0,0,0,0h0l0,0,0,0v0h0l0-.06-3-6.38a0.77,0.77,0,1,1,1.39-.65l2.19,4.67,1.67-5.08h0v-0.22l0,0h0l0,0h0a0.75,0.75,0,0,1,.33-0.18h0.2a0.75,0.75,0,0,1,.37.1h0l0.06,0h0l0,0h0l0,0,0,0,0,0,0,0h0l0,0v0l0,0h0v0l0,0v0h0l2.13,4.54,1.34-4.87A0.77,0.77,0,1,1,170.05,169.7Z" transform="translate(-23.78 -37.21)"/><path class="cls-38" d="M182.36,168.55l-1.89,6.88h0v0h0v0.05h0v0l0,0v0h0l0,0h0v0h0v0a0.72,0.72,0,0,1-.64.22H179.4l0,0,0,0,0,0,0,0,0,0,0,0,0,0,0,0,0,0,0,0,0,0,0,0,0,0v0h0l-2.19-4.66L175.18,176h0l0,0h0l0,0.07h0l0,0h0l0,0h0l0,0h0l0,0h0l0,0h0l-0.07,0h0l0,0h-0.07l-0.09,0h-0.35l-0.09,0h0l0,0h0l0,0h0l0,0,0,0,0,0h0l0,0,0,0,0,0,0,0h0l0,0,0,0v0h0l0-.06-3-6.38a0.77,0.77,0,1,1,1.39-.65l2.19,4.67,1.67-5.08h0v-0.22l0,0h0l0,0h0a0.75,0.75,0,0,1,.33-0.18h0.2a0.74,0.74,0,0,1,.37.1h0l0.06,0h0l0,0h0l0,0,0,0,0,0,0,0h0l0,0v0l0,0h0v0l0,0v0h0l2.13,4.54,1.34-4.87A0.77,0.77,0,1,1,182.36,168.55Z" transform="translate(-23.78 -37.21)"/><path class="cls-38" d="M194.67,167.4l-1.89,6.88h0v0h0v0.05h0v0l0,0v0h0l0,0h0v0h0v0a0.72,0.72,0,0,1-.64.22H191.7l0,0,0,0,0,0,0,0,0,0,0,0,0,0,0,0,0,0,0,0,0,0,0,0,0,0v0h0l-2.19-4.66-1.67,5.08h0l0,0h0l0,0.06h0l0,0h0l0,0h0l0,0h0l0,0h0l0,0h0l-0.07,0h0l0,0H187l-0.09,0h-0.35l-0.09,0h0l0,0h0l0,0h0l0,0,0,0,0,0h0l0,0,0,0,0,0,0,0h0l0,0,0,0v0h0l0-.06-3-6.38a0.77,0.77,0,1,1,1.39-.65l2.19,4.67,1.67-5.08h0v-0.22l0,0h0l0,0h0a0.75,0.75,0,0,1,.33-0.18H189a0.74,0.74,0,0,1,.37.1h0l0.06,0h0l0,0h0l0,0,0,0,0,0,0,0h0l0,0v0l0,0h0v0l0,0v0h0l2.13,4.54,1.34-4.87A0.77,0.77,0,1,1,194.67,167.4Z" transform="translate(-23.78 -37.21)"/><path class="cls-38" d="M197,173.46v0.15a0.77,0.77,0,0,1-1.53.14V173.6A0.77,0.77,0,1,1,197,173.46Z" transform="translate(-23.78 -37.21)"/><circle class="cls-3" cx="90.51" cy="390.1" r="25.23" transform="translate(-152.13 17.53) rotate(-20.07)"/><g class="cls-39"><path class="cls-31" d="M114.12,381.61a25.23,25.23,0,0,1-15,32.35c-0.42.15-.84,0.3-1.27,0.43,12.26-5.22,13.61-17.44,9-30.1s-13.53-21.15-26.27-17.23c0.41-.17.82-0.33,1.24-0.49A25.23,25.23,0,0,1,114.12,381.61Z" transform="translate(-23.78 -37.21)"/><path class="cls-32" d="M110.18,402.51a7.84,7.84,0,0,1-6.6,4.2c-1.27-.16,3.23-2.41,4.65-5.55s-0.78-6,.49-5.81S111.6,399.38,110.18,402.51Z" transform="translate(-23.78 -37.21)"/><path class="cls-33" d="M72,384a5.91,5.91,0,0,1-.88,5.48c-1.11,1.21-2.5.78-3.13-.94a6,6,0,0,1,.81-5.41C69.93,381.8,71.37,382.18,72,384Z" transform="translate(-23.78 -37.21)"/><path class="cls-33" d="M69.35,392.21a3,3,0,0,1-.44,2.74c-0.55.61-1.25,0.39-1.57-.47a3,3,0,0,1,.41-2.7C68.31,391.14,69,391.32,69.35,392.21Z" transform="translate(-23.78 -37.21)"/></g><circle class="cls-3" cx="62.74" cy="371.79" r="6.5" transform="translate(-147.54 6.89) rotate(-20.07)"/><g class="cls-40"><path class="cls-31" d="M68.82,369.61a6.5,6.5,0,0,1-3.87,8.33l-0.33.11c3.16-1.34,3.5-4.49,2.31-7.75s-3.48-5.44-6.77-4.44l0.32-.13A6.5,6.5,0,0,1,68.82,369.61Z" transform="translate(-23.78 -37.21)"/><path class="cls-32" d="M67.8,375a2,2,0,0,1-1.7,1.08c-0.33,0,.83-0.62,1.2-1.43s-0.2-1.54.13-1.5A1.51,1.51,0,0,1,67.8,375Z" transform="translate(-23.78 -37.21)"/><path class="cls-33" d="M58,370.21a1.52,1.52,0,0,1-.23,1.41c-0.29.31-.64,0.2-0.81-0.24a1.54,1.54,0,0,1,.21-1.39C57.44,369.65,57.81,369.75,58,370.21Z" transform="translate(-23.78 -37.21)"/><path class="cls-33" d="M57.29,372.34a0.76,0.76,0,0,1-.11.71c-0.14.16-.32,0.1-0.4-0.12a0.77,0.77,0,0,1,.1-0.7C57,372.06,57.21,372.11,57.29,372.34Z" transform="translate(-23.78 -37.21)"/></g><circle class="cls-3" cx="114.72" cy="367.27" r="3.93" transform="translate(-142.83 24.45) rotate(-20.07)"/><g class="cls-41"><path class="cls-31" d="M118.39,365.95a3.93,3.93,0,0,1-2.34,5l-0.2.07c1.91-.81,2.12-2.71,1.4-4.68s-2.11-3.29-4.09-2.68l0.19-.08A3.93,3.93,0,0,1,118.39,365.95Z" transform="translate(-23.78 -37.21)"/><path class="cls-32" d="M117.78,369.2a1.22,1.22,0,0,1-1,.65c-0.2,0,.5-0.38.72-0.86s-0.12-.93.08-0.9A0.91,0.91,0,0,1,117.78,369.2Z" transform="translate(-23.78 -37.21)"/><path class="cls-33" d="M111.84,366.31a0.92,0.92,0,0,1-.14.85c-0.17.19-.39,0.12-0.49-0.15a0.93,0.93,0,0,1,.13-0.84C111.51,366,111.74,366,111.84,366.31Z" transform="translate(-23.78 -37.21)"/><path class="cls-33" d="M111.42,367.6a0.46,0.46,0,0,1-.07.43c-0.09.09-.19,0.06-0.24-0.07a0.46,0.46,0,0,1,.06-0.42C111.26,367.43,111.37,367.46,111.42,367.6Z" transform="translate(-23.78 -37.21)"/></g><circle class="cls-3" cx="61.11" cy="395.02" r="2.89" transform="translate(-155.61 7.74) rotate(-20.07)"/><g class="cls-42"><path class="cls-31" d="M63.82,394a2.89,2.89,0,0,1-1.72,3.7l-0.14,0c1.4-.6,1.56-2,1-3.44s-1.55-2.42-3-2l0.14-.06A2.89,2.89,0,0,1,63.82,394Z" transform="translate(-23.78 -37.21)"/><path class="cls-32" d="M63.36,396.44a0.9,0.9,0,0,1-.76.48c-0.15,0,.37-0.28.53-0.64s-0.09-.68.06-0.66A0.67,0.67,0,0,1,63.36,396.44Z" transform="translate(-23.78 -37.21)"/><path class="cls-33" d="M59,394.31a0.68,0.68,0,0,1-.1.63c-0.13.14-.29,0.09-0.36-0.11a0.68,0.68,0,0,1,.09-0.62C58.76,394.07,58.92,394.11,59,394.31Z" transform="translate(-23.78 -37.21)"/><path class="cls-33" d="M58.69,395.26a0.34,0.34,0,0,1-.05.31c-0.06.07-.14,0-0.18-0.05a0.34,0.34,0,0,1,0-.31C58.57,395.13,58.66,395.16,58.69,395.26Z" transform="translate(-23.78 -37.21)"/></g><circle class="cls-3" cx="89.94" cy="420.93" r="2.89" transform="translate(-162.75 19.2) rotate(-20.07)"/><g class="cls-43"><path class="cls-31" d="M92.64,420a2.89,2.89,0,0,1-1.72,3.7l-0.14,0c1.4-.6,1.56-2,1-3.44s-1.55-2.42-3-2l0.14-.06A2.89,2.89,0,0,1,92.64,420Z" transform="translate(-23.78 -37.21)"/><path class="cls-32" d="M92.19,422.35a0.9,0.9,0,0,1-.76.48c-0.15,0,.37-0.28.53-0.64s-0.09-.68.06-0.66A0.67,0.67,0,0,1,92.19,422.35Z" transform="translate(-23.78 -37.21)"/><path class="cls-33" d="M87.82,420.22a0.68,0.68,0,0,1-.1.63c-0.13.14-.29,0.09-0.36-0.11a0.68,0.68,0,0,1,.09-0.62C87.58,420,87.75,420,87.82,420.22Z" transform="translate(-23.78 -37.21)"/><path class="cls-33" d="M87.52,421.17a0.34,0.34,0,0,1-.05.31c-0.06.07-.14,0-0.18-0.05a0.34,0.34,0,0,1,0-.31C87.4,421,87.48,421.07,87.52,421.17Z" transform="translate(-23.78 -37.21)"/></g><path class="cls-38" d="M80.3,394.25l1.43,3a0.77,0.77,0,0,1-1.38.66l-1.1-2.32-3.47,1.65,1.1,2.32a0.77,0.77,0,0,1-1.39.66l-2.86-6a0.77,0.77,0,0,1,1.38-.66l1.1,2.32,3.47-1.65-1.1-2.32a0.77,0.77,0,1,1,1.38-.66l1.43,3h0Z" transform="translate(-23.78 -37.21)"/><path class="cls-38" d="M86.1,387.8a0.77,0.77,0,0,1-.36,1l-1.84.87L86.43,395a0.77,0.77,0,0,1-1.38.66l-2.54-5.33-1.83.87a0.77,0.77,0,1,1-.66-1.38l5.06-2.4A0.77,0.77,0,0,1,86.1,387.8Z" transform="translate(-23.78 -37.21)"/><path class="cls-38" d="M92.89,384.57a0.77,0.77,0,0,1-.36,1l-1.84.87,2.53,5.33a0.77,0.77,0,1,1-1.38.66l-2.54-5.33-1.84.87a0.77,0.77,0,1,1-.66-1.38l5.06-2.4A0.77,0.77,0,0,1,92.89,384.57Z" transform="translate(-23.78 -37.21)"/><path class="cls-38" d="M100.41,383.38A2.91,2.91,0,0,1,99,387.25l-1.79.85,0.7,1.46a0.77,0.77,0,1,1-1.39.66l-1-2.16-1.84-3.87a0.76,0.76,0,0,1,.36-1L96.53,382A2.91,2.91,0,0,1,100.41,383.38ZM99,384a1.38,1.38,0,0,0-1.83-.65l-1.79.85,1.18,2.48,1.79-.85A1.38,1.38,0,0,0,99,384Z" transform="translate(-23.78 -37.21)"/><path class="cls-38" d="M108.13,383.08a2.37,2.37,0,0,1,.09,1.85,3.11,3.11,0,0,1-1.7,1.69l-0.11.05h0a5.43,5.43,0,0,1-3.11.37,0.77,0.77,0,0,1,.21-1.52,4,4,0,0,0,2.28-.25h0l0.08,0a1.68,1.68,0,0,0,.92-0.84,0.84,0.84,0,0,0,0-.66c-0.09-.18-0.31-0.66-2.21-0.2h0a4.93,4.93,0,0,1-1.76.15,2.08,2.08,0,0,1-1.75-1.24c-0.69-1.55,0-2.75,1.48-3.46l0.37-.16h0a5.6,5.6,0,0,1,2.22-.29,0.77,0.77,0,0,1-.05,1.53,4.27,4.27,0,0,0-1.6.18h0l-0.11,0c-0.92.38-1.16,0.78-1,1.2s0.36,0.89,1.87.54h0a5.87,5.87,0,0,1,2.22-.2A2.18,2.18,0,0,1,108.13,383.08Z" transform="translate(-23.78 -37.21)"/><circle class="cls-3" cx="396.78" cy="393.22" r="25.23" transform="translate(-184.23 316.64) rotate(-40.7)"/><g class="cls-44"><path class="cls-31" d="M413,412.33a25.23,25.23,0,0,1-35.58-2.67c-0.29-.34-0.57-0.68-0.85-1,9.21,9.64,21.12,6.59,31.34-2.2s15-20.12,6.87-30.66c0.31,0.32.6,0.65,0.9,1A25.23,25.23,0,0,1,413,412.33Z" transform="translate(-23.78 -37.21)"/><path class="cls-32" d="M392.09,416a7.84,7.84,0,0,1-6.25-4.7c-0.3-1.25,3.4,2.17,6.83,2.39s5.31-2.83,5.61-1.59S395.53,416.23,392.09,416Z" transform="translate(-23.78 -37.21)"/><path class="cls-33" d="M396,373.76a5.91,5.91,0,0,1-5.44,1.11c-1.53-.61-1.61-2.07-0.22-3.26a6,6,0,0,1,5.35-1.14C397.29,371,397.45,372.52,396,373.76Z" transform="translate(-23.78 -37.21)"/><path class="cls-33" d="M387.34,374.17a3,3,0,0,1-2.72.55c-0.76-.3-0.81-1-0.11-1.63a3,3,0,0,1,2.67-.57C388,372.81,388.06,373.55,387.34,374.17Z" transform="translate(-23.78 -37.21)"/></g><circle class="cls-3" cx="404.12" cy="360.78" r="6.5" transform="translate(-161.3 313.58) rotate(-40.7)"/><g class="cls-45"><path class="cls-31" d="M408.31,365.7a6.5,6.5,0,0,1-9.16-.69l-0.22-.27c2.37,2.48,5.44,1.7,8.07-.57s3.87-5.18,1.77-7.89l0.23,0.26A6.5,6.5,0,0,1,408.31,365.7Z" transform="translate(-23.78 -37.21)"/><path class="cls-32" d="M402.92,366.65a2,2,0,0,1-1.61-1.21c-0.08-.32.87,0.56,1.76,0.62s1.37-.73,1.45-0.41A1.51,1.51,0,0,1,402.92,366.65Z" transform="translate(-23.78 -37.21)"/><path class="cls-33" d="M403.93,355.77a1.52,1.52,0,0,1-1.4.28c-0.39-.16-0.42-0.53-0.06-0.84a1.54,1.54,0,0,1,1.38-.29C404.26,355.07,404.3,355.45,403.93,355.77Z" transform="translate(-23.78 -37.21)"/><path class="cls-33" d="M401.7,355.87a0.76,0.76,0,0,1-.7.14c-0.2-.08-0.21-0.27,0-0.42a0.77,0.77,0,0,1,.69-0.15C401.86,355.52,401.88,355.71,401.7,355.87Z" transform="translate(-23.78 -37.21)"/></g><circle class="cls-3" cx="426.67" cy="407.83" r="3.93" transform="translate(-186.53 339.67) rotate(-40.7)"/><g class="cls-46"><path class="cls-31" d="M429.21,410.81a3.93,3.93,0,0,1-5.54-.42l-0.13-.16c1.43,1.5,3.29,1,4.88-.34s2.34-3.13,1.07-4.77l0.14,0.15A3.93,3.93,0,0,1,429.21,410.81Z" transform="translate(-23.78 -37.21)"/><path class="cls-32" d="M425.95,411.38a1.22,1.22,0,0,1-1-.73c0-.19.53,0.34,1.06,0.37s0.83-.44.87-0.25A0.91,0.91,0,0,1,425.95,411.38Z" transform="translate(-23.78 -37.21)"/><path class="cls-33" d="M426.55,404.8a0.92,0.92,0,0,1-.85.17c-0.24-.09-0.25-0.32,0-0.51a0.93,0.93,0,0,1,.83-0.18C426.75,404.38,426.78,404.61,426.55,404.8Z" transform="translate(-23.78 -37.21)"/><path class="cls-33" d="M425.21,404.87a0.46,0.46,0,0,1-.42.09c-0.12,0-.13-0.16,0-0.25a0.46,0.46,0,0,1,.42-0.09C425.31,404.66,425.32,404.77,425.21,404.87Z" transform="translate(-23.78 -37.21)"/></g><circle class="cls-3" cx="381.82" cy="367.45" r="2.89" transform="translate(-171.04 300.65) rotate(-40.7)"/><g class="cls-47"><path class="cls-31" d="M383.68,369.63a2.89,2.89,0,0,1-4.07-.31l-0.1-.12c1.05,1.1,2.42.75,3.59-.25s1.72-2.3.79-3.51l0.1,0.11A2.89,2.89,0,0,1,383.68,369.63Z" transform="translate(-23.78 -37.21)"/><path class="cls-32" d="M381.28,370.05a0.9,0.9,0,0,1-.72-0.54c0-.14.39,0.25,0.78,0.27s0.61-.32.64-0.18A0.67,0.67,0,0,1,381.28,370.05Z" transform="translate(-23.78 -37.21)"/><path class="cls-33" d="M381.73,365.22a0.68,0.68,0,0,1-.62.13c-0.17-.07-0.18-0.24,0-0.37a0.68,0.68,0,0,1,.61-0.13C381.88,364.91,381.89,365.08,381.73,365.22Z" transform="translate(-23.78 -37.21)"/><path class="cls-33" d="M380.74,365.27a0.34,0.34,0,0,1-.31.06c-0.09,0-.09-0.12,0-0.19a0.34,0.34,0,0,1,.31-0.07C380.81,365.11,380.82,365.2,380.74,365.27Z" transform="translate(-23.78 -37.21)"/></g><circle class="cls-3" cx="367.73" cy="403.55" r="2.89" transform="translate(-197.99 300.19) rotate(-40.7)"/><g class="cls-48"><path class="cls-31" d="M369.59,405.74a2.89,2.89,0,0,1-4.07-.31l-0.1-.12c1.05,1.1,2.42.75,3.59-.25s1.72-2.3.79-3.51l0.1,0.11A2.89,2.89,0,0,1,369.59,405.74Z" transform="translate(-23.78 -37.21)"/><path class="cls-32" d="M367.19,406.16a0.9,0.9,0,0,1-.72-0.54c0-.14.39,0.25,0.78,0.27s0.61-.32.64-0.18A0.67,0.67,0,0,1,367.19,406.16Z" transform="translate(-23.78 -37.21)"/><path class="cls-33" d="M367.64,401.33a0.68,0.68,0,0,1-.62.13c-0.17-.07-0.18-0.24,0-0.37a0.68,0.68,0,0,1,.61-0.13C367.78,401,367.8,401.18,367.64,401.33Z" transform="translate(-23.78 -37.21)"/><path class="cls-33" d="M366.65,401.37a0.34,0.34,0,0,1-.31.06c-0.09,0-.09-0.12,0-0.19a0.34,0.34,0,0,1,.31-0.07C366.72,401.22,366.73,401.3,366.65,401.37Z" transform="translate(-23.78 -37.21)"/></g><path class="cls-38" d="M391.29,386.63L389,389a0.77,0.77,0,0,1-1.1-1.06l1.78-1.85-2.77-2.67-1.78,1.85a0.77,0.77,0,0,1-1.1-1.06l4.63-4.8a0.77,0.77,0,0,1,1.1,1.06L388,382.34l2.77,2.67,1.78-1.85a0.77,0.77,0,1,1,1.11,1.06l-2.32,2.4h0Z" transform="translate(-23.78 -37.21)"/><path class="cls-38" d="M399.37,389.79a0.77,0.77,0,0,1-1.08,0l-1.46-1.41-4.1,4.25a0.77,0.77,0,1,1-1.1-1.06l4.1-4.25-1.46-1.41a0.77,0.77,0,1,1,1.06-1.1l4,3.89A0.77,0.77,0,0,1,399.37,389.79Z" transform="translate(-23.78 -37.21)"/><path class="cls-38" d="M404.79,395a0.76,0.76,0,0,1-1.08,0l-1.46-1.41-4.1,4.25a0.77,0.77,0,0,1-1.1-1.06l4.1-4.25-1.46-1.41a0.77,0.77,0,1,1,1.06-1.1l4,3.89A0.77,0.77,0,0,1,404.79,395Z" transform="translate(-23.78 -37.21)"/><path class="cls-38" d="M408.56,401.62a2.91,2.91,0,0,1-4.11.08L403,400.31l-1.12,1.17a0.77,0.77,0,0,1-1.1-1.06l1.66-1.72,3-3.08a0.77,0.77,0,0,1,1.08,0l2,1.91A2.91,2.91,0,0,1,408.56,401.62Zm-1.1-1.06a1.38,1.38,0,0,0,0-1.95L406,397.23l-1.91,2,1.43,1.38A1.38,1.38,0,0,0,407.45,400.55Z" transform="translate(-23.78 -37.21)"/></svg>