<svg width="1512" height="1128" viewBox="0 0 1512 1128" fill="none" xmlns="http://www.w3.org/2000/svg">
<path d="M-0.217958 77.6727C66.7916 12.5273 203.622 -107.68 472.505 207.987C741.389 523.653 932.206 -6.56287 1202.35 167.47C1472.49 341.503 1471.31 69.7416 1520 77.6727V737.296C1455.49 1094.79 -111.234 1212.25 -0.217958 737.296C-0.217958 737.296 -67.2275 142.818 -0.217958 77.6727Z" fill="url(#paint0_linear_527_11)"/>
<path d="M-8.21796 154.673C58.7916 89.5273 195.622 -30.6796 464.505 284.987C733.389 600.653 924.206 70.4372 1194.35 244.47C1464.49 418.503 1463.31 146.742 1512 154.673V814.296C1447.49 1171.79 -119.234 1289.25 -8.21796 814.296C-8.21796 814.296 -75.2275 219.818 -8.21796 154.673Z" fill="url(#paint1_linear_527_11)"/>
<defs>
<linearGradient id="paint0_linear_527_11" x1="673" y1="82.0001" x2="1439.13" y2="-31.3535" gradientUnits="userSpaceOnUse">
<stop stop-color="#7028BA"/>
<stop offset="1" stop-color="#983AD5"/>
</linearGradient>
<linearGradient id="paint1_linear_527_11" x1="-139.346" y1="76.9999" x2="1688.84" y2="331.885" gradientUnits="userSpaceOnUse">
<stop stop-color="#B283E3"/>
<stop offset="1" stop-color="#8C35C4"/>
</linearGradient>
</defs>
</svg>
