<svg width="153" height="40" viewBox="0 0 153 40" fill="none" xmlns="http://www.w3.org/2000/svg">
<g clip-path="url(#clip0_425_10)">
<path d="M122.049 34.5008C120.931 35.1424 119.649 35.4292 118.368 35.3239C117.087 35.2187 115.867 34.7262 114.867 33.9105C113.866 33.0948 113.131 31.9935 112.756 30.7495C112.382 29.5056 112.386 28.1765 112.767 26.9348L115.085 18.8825C115.491 17.4499 116.372 16.2026 117.58 15.3502C118.788 14.4978 120.249 14.0925 121.717 14.2024C122.181 14.2337 122.639 14.3171 123.085 14.451C123.549 14.5889 123.94 14.9076 124.172 15.3373C124.405 15.7669 124.459 16.2723 124.323 16.7424C124.173 17.2028 123.856 17.5884 123.436 17.8212C123.015 18.0539 122.523 18.1165 122.059 17.9962C121.355 17.7888 120.599 17.8726 119.956 18.2293C119.313 18.586 118.837 19.1864 118.631 19.8985L116.292 27.9725C116.19 28.3273 116.159 28.6989 116.199 29.0662C116.239 29.4334 116.35 29.789 116.526 30.1127C116.702 30.4363 116.94 30.7218 117.225 30.9526C117.51 31.1835 117.837 31.3553 118.188 31.4582C118.538 31.5611 118.905 31.5931 119.268 31.5524C119.631 31.5117 119.983 31.399 120.302 31.2209C120.622 31.0427 120.904 30.8026 121.132 30.5141C121.361 30.2256 121.53 29.8945 121.632 29.5397L123.01 24.7623C123.035 24.6729 123.086 24.5931 123.157 24.5334C123.227 24.4736 123.313 24.4367 123.405 24.4272C124.41 24.3096 125.382 23.9938 126.267 23.4977L126.427 23.4113C126.507 23.3665 126.599 23.3469 126.69 23.3549C126.781 23.3629 126.867 23.3981 126.938 23.4561C127.009 23.5141 127.062 23.5922 127.089 23.6805C127.116 23.7688 127.116 23.8632 127.09 23.9517L125.167 30.5881C124.931 31.4175 124.533 32.1908 123.998 32.8627C123.462 33.5346 122.8 34.0915 122.049 34.5008Z" fill="url(#paint0_linear_425_10)"/>
<path d="M125.594 22.2872L125.317 22.4385C125.112 22.5435 124.901 22.6373 124.686 22.7195L124.142 22.8924L123.864 22.9573L123.554 23.0113H123.245H122.935C122.182 23.0621 121.427 22.9779 120.703 22.7627C120.236 22.6247 119.842 22.3048 119.607 21.8732C119.373 21.4416 119.318 20.9335 119.453 20.4605C119.603 20.0001 119.921 19.6145 120.341 19.3817C120.761 19.149 121.253 19.0864 121.717 19.2067C122.421 19.4141 123.178 19.3303 123.821 18.9736C124.463 18.6169 124.94 18.0166 125.146 17.3044L125.755 15.24V15.186L127.474 9.26289C127.679 8.54624 127.595 7.77638 127.24 7.12268C126.884 6.46898 126.286 5.98497 125.578 5.77714C125.228 5.67423 124.86 5.64223 124.498 5.68295C124.135 5.72367 123.783 5.83632 123.463 6.01447C122.818 6.37427 122.339 6.979 122.134 7.69565L120.756 12.4514C120.731 12.5409 120.68 12.6206 120.609 12.6803C120.539 12.7401 120.452 12.777 120.361 12.7865C119.36 12.9019 118.392 13.2139 117.509 13.7052L117.36 13.7917C117.28 13.84 117.187 13.8626 117.094 13.8563C117.001 13.85 116.912 13.8153 116.839 13.7566C116.766 13.6979 116.712 13.6182 116.685 13.5279C116.658 13.4376 116.659 13.3411 116.687 13.2512L118.609 6.62561C119.089 4.96585 120.201 3.56709 121.701 2.73704C123.2 1.90698 124.964 1.71363 126.604 2.19952C128.244 2.68541 129.626 3.81073 130.446 5.32793C131.266 6.84514 131.457 8.62994 130.977 10.2897L128.606 18.4177C128.281 19.549 127.657 20.5691 126.801 21.3684L126.598 21.5522L126.481 21.6495L126.224 21.844L126.086 21.9197C125.979 21.9737 125.904 22.0494 125.808 22.1034L125.594 22.2872Z" fill="url(#paint1_linear_425_10)"/>
<path d="M23.6174 0V19.1743C23.6174 22.8276 22.6455 25.591 20.7016 27.4645C18.7578 29.3379 15.9097 30.2747 12.1574 30.2747C8.40503 30.2747 5.55694 29.3379 3.61312 27.4645C1.6693 25.591 0.697388 22.8276 0.697388 19.1743V0H7.39396V17.1964C7.39396 19.6031 7.76777 21.2748 8.51539 22.2115C9.52098 23.1186 10.821 23.6198 12.1681 23.6198C13.5151 23.6198 14.8151 23.1186 15.8207 22.2115C16.5684 21.2748 16.9422 19.6031 16.9422 17.1964V0H23.6387H23.6174Z" fill="url(#paint2_linear_425_10)"/>
<path d="M27.5382 29.7451V11.2409H33.8396V13.1864H33.9144C34.5753 12.4355 35.3798 11.828 36.2793 11.4007C37.1788 10.9734 38.1546 10.7352 39.1477 10.7005C40.0564 10.7001 40.9612 10.8201 41.8392 11.0572C42.7402 11.2917 43.6034 11.6557 44.4025 12.138C45.2444 12.6683 45.9333 13.414 46.3997 14.2997C46.9309 15.2943 47.196 16.4121 47.1687 17.5423V29.7235H40.8673V19.2716C40.8796 18.348 40.5565 17.4519 39.9594 16.7532C39.6717 16.4022 39.3085 16.1224 38.8976 15.935C38.4866 15.7477 38.0389 15.6579 37.5884 15.6724C37.1085 15.6719 36.6333 15.7671 36.1898 15.9526C35.7463 16.138 35.3433 16.4101 35.0038 16.7532C34.6499 17.0625 34.3644 17.4437 34.1656 17.872C33.9669 18.3003 33.8595 18.7661 33.8503 19.2392V29.691H27.5489L27.5382 29.7451Z" fill="url(#paint3_linear_425_10)"/>
<path d="M50.266 34.2847L55.4353 31.723C56.3823 33.3083 58.0342 34.1009 60.391 34.1009C61.4959 34.0918 62.5665 33.7116 63.4349 33.02C63.9121 32.6358 64.2898 32.1399 64.5354 31.5749C64.7811 31.01 64.8872 30.3932 64.8447 29.7775V28.4048C63.7268 29.6514 61.7331 30.2747 58.8637 30.2747C57.6399 30.3079 56.4237 30.0719 55.2988 29.5829C54.174 29.094 53.1675 28.3638 52.3487 27.4428C50.6948 25.5143 49.7842 23.0465 49.7842 20.493C49.7842 17.9394 50.6948 15.4716 52.3487 13.5431C53.1656 12.619 54.1715 11.886 55.2966 11.3951C56.4217 10.9042 57.6389 10.6671 58.8637 10.7004C61.0248 10.6221 63.1313 11.3973 64.7379 12.8621H64.8447V11.2409H71.1461V30.2314C71.2197 31.5443 70.9907 32.8566 70.4773 34.0646C69.9639 35.2726 69.18 36.3433 68.1876 37.1921C65.9552 38.9134 63.1942 39.7822 60.391 39.6457C55.1576 39.6529 51.7826 37.8659 50.266 34.2847ZM57.7422 17.3801C57.1162 17.9815 56.6848 18.7607 56.505 19.6151C56.3251 20.4695 56.4053 21.359 56.7348 22.1663C57.0643 22.9737 57.6278 23.6612 58.351 24.1381C59.0742 24.615 59.9232 24.859 60.7861 24.838C61.3493 24.8575 61.9103 24.7592 62.4341 24.549C62.9579 24.3388 63.4332 24.0214 63.83 23.6166C64.6078 22.769 65.04 21.6551 65.04 20.4984C65.04 19.3417 64.6078 18.2278 63.83 17.3801C63.4358 16.9809 62.9655 16.6669 62.4478 16.457C61.9301 16.247 61.3757 16.1456 60.8182 16.1588C60.2414 16.1317 59.6654 16.2263 59.1267 16.4366C58.588 16.6468 58.0983 16.9682 57.6889 17.3801H57.7422Z" fill="url(#paint4_linear_425_10)"/>
<path d="M81.3564 11.2408V20.039C81.2462 21.3896 81.5323 22.7432 82.1788 23.9301C82.9185 24.6693 83.9162 25.0839 84.9557 25.0839C85.9953 25.0839 86.993 24.6693 87.7326 23.9301C88.3792 22.7432 88.6653 21.3896 88.555 20.039V11.2408H94.8564V21.5846C94.8564 24.6614 94.066 26.8772 92.4853 28.2318C90.9047 29.5865 88.3948 30.2638 84.9557 30.2638C81.5095 30.2638 78.9997 29.5865 77.4261 28.2318C75.8525 26.8772 75.0622 24.6614 75.0551 21.5846V11.2408H81.3564Z" fill="url(#paint5_linear_425_10)"/>
<path d="M102.835 22.0494C103.373 22.0465 103.906 22.1517 104.403 22.3587C104.901 22.5657 105.353 22.8705 105.733 23.2555C106.114 23.6405 106.415 24.098 106.62 24.6015C106.824 25.105 106.928 25.6446 106.925 26.1891C106.932 26.729 106.829 27.2645 106.623 27.7626C106.417 28.2608 106.113 28.7111 105.729 29.0858C105.352 29.4778 104.9 29.7875 104.4 29.9957C103.901 30.204 103.364 30.3062 102.824 30.2963C101.748 30.2934 100.718 29.8598 99.9572 29.0902C99.1967 28.3205 98.7682 27.2775 98.7654 26.1891C98.7556 25.6423 98.8567 25.0993 99.0624 24.5936C99.2682 24.088 99.5742 23.6304 99.9616 23.2491C100.334 22.861 100.781 22.5542 101.275 22.3479C101.769 22.1415 102.3 22.0399 102.835 22.0494Z" fill="url(#paint6_linear_425_10)"/>
<path d="M133.38 29.7451V11.2409H139.682V13.1864H139.756C140.417 12.4355 141.222 11.828 142.121 11.4007C143.021 10.9734 143.997 10.7352 144.99 10.7005C145.898 10.7001 146.803 10.8201 147.681 11.0572C148.582 11.2918 149.445 11.6558 150.244 12.138C151.086 12.6683 151.775 13.414 152.242 14.2997C152.773 15.2943 153.038 16.4121 153.011 17.5423V29.7235H146.709V19.2716C146.722 18.348 146.399 17.4519 145.801 16.7532C145.514 16.4022 145.151 16.1224 144.74 15.935C144.329 15.7477 143.881 15.6579 143.43 15.6724C142.951 15.6719 142.475 15.7671 142.032 15.9526C141.588 16.138 141.185 16.4101 140.846 16.7532C140.492 17.0625 140.206 17.4437 140.008 17.872C139.809 18.3003 139.702 18.7661 139.692 19.2392V29.691H133.391L133.38 29.7451Z" fill="url(#paint7_linear_425_10)"/>
</g>
<defs>
<linearGradient id="paint0_linear_425_10" x1="111.522" y1="14.1847" x2="129.039" y2="15.3297" gradientUnits="userSpaceOnUse">
<stop stop-color="#B283E3"/>
<stop offset="1" stop-color="#8C35C4"/>
</linearGradient>
<linearGradient id="paint1_linear_425_10" x1="115.712" y1="1.93686" x2="133.159" y2="3.07647" gradientUnits="userSpaceOnUse">
<stop stop-color="#B283E3"/>
<stop offset="1" stop-color="#8C35C4"/>
</linearGradient>
<linearGradient id="paint2_linear_425_10" x1="-0.802623" y1="-4.00047e-06" x2="26.6412" y2="1.96598" gradientUnits="userSpaceOnUse">
<stop stop-color="#B283E3"/>
<stop offset="1" stop-color="#8C35C4"/>
</linearGradient>
<linearGradient id="paint3_linear_425_10" x1="26.2546" y1="10.7005" x2="49.6384" y2="12.9793" gradientUnits="userSpaceOnUse">
<stop stop-color="#B283E3"/>
<stop offset="1" stop-color="#8C35C4"/>
</linearGradient>
<linearGradient id="paint4_linear_425_10" x1="48.3866" y1="10.695" x2="73.9638" y2="12.4794" gradientUnits="userSpaceOnUse">
<stop stop-color="#B283E3"/>
<stop offset="1" stop-color="#8C35C4"/>
</linearGradient>
<linearGradient id="paint5_linear_425_10" x1="73.7604" y1="11.2408" x2="97.3411" y2="13.5613" gradientUnits="userSpaceOnUse">
<stop stop-color="#B283E3"/>
<stop offset="1" stop-color="#8C35C4"/>
</linearGradient>
<linearGradient id="paint6_linear_425_10" x1="98.2312" y1="22.0488" x2="107.959" y2="22.9586" gradientUnits="userSpaceOnUse">
<stop stop-color="#B283E3"/>
<stop offset="1" stop-color="#8C35C4"/>
</linearGradient>
<linearGradient id="paint7_linear_425_10" x1="132.097" y1="10.7005" x2="155.481" y2="12.9793" gradientUnits="userSpaceOnUse">
<stop stop-color="#B283E3"/>
<stop offset="1" stop-color="#8C35C4"/>
</linearGradient>
<clipPath id="clip0_425_10">
<rect width="152.323" height="39.6457" fill="white" transform="translate(0.677246)"/>
</clipPath>
</defs>
</svg>
